<svg width="34" height="34" viewBox="0 0 34 34" fill="none" xmlns="http://www.w3.org/2000/svg">
<path d="M34 0H19.7419V6.58065H14.2581V0H0V14.2581H7.67742V31.2581C7.67742 32.77 8.90745 34 10.4194 34H23.5806C25.0925 34 26.3226 32.77 26.3226 31.2581V14.2581H34V0ZM32.9032 1.09677V4.3871H20.8387V1.09677H32.9032ZM17 20.8387C17.907 20.8387 18.6452 21.5768 18.6452 22.4839C18.6452 23.3909 17.907 24.129 17 24.129C16.093 24.129 15.3548 23.3909 15.3548 22.4839C15.3548 21.5768 16.093 20.8387 17 20.8387ZM18.0441 19.9509C17.7222 19.8176 17.3702 19.7419 17 19.7419C16.6298 19.7419 16.2778 19.8176 15.9559 19.9509L12.0146 14.2581H14.2581V10.9677H19.7419V14.2581H21.9854L18.0441 19.9509ZM20.8387 13.1613V5.48387H27.4194V13.1613H20.8387ZM28.5161 9.87097H32.9032V10.9677H28.5161V9.87097ZM28.5161 8.77419V7.67742H32.9032V8.77419H28.5161ZM28.5161 6.58065V5.48387H32.9032V6.58065H28.5161ZM19.7419 7.67742V9.87097H14.2581V7.67742H19.7419ZM13.1613 1.09677V4.3871H1.09677V1.09677H13.1613ZM1.09677 5.48387H13.1613V13.1613H1.09677V5.48387ZM23.5806 32.9032H10.4194C9.51232 32.9032 8.77419 32.1651 8.77419 31.2581V29.6129H25.2258V31.2581C25.2258 32.1651 24.4877 32.9032 23.5806 32.9032ZM25.2258 28.5161H8.77419V14.2581H10.6804L15.0466 20.5651C14.5602 21.0597 14.2581 21.737 14.2581 22.4839C14.2581 23.9958 15.4881 25.2258 17 25.2258C18.5119 25.2258 19.7419 23.9958 19.7419 22.4839C19.7419 21.737 19.4398 21.0597 18.9534 20.5651L23.3196 14.2581H25.2258V28.5161ZM28.5161 13.1613V12.0645H32.9032V13.1613H28.5161Z" fill="#00AEFF"/>
<path d="M23.0323 2.1936H21.9355V3.29038H23.0323V2.1936Z" fill="#00AEFF"/>
<path d="M25.2258 2.1936H24.129V3.29038H25.2258V2.1936Z" fill="#00AEFF"/>
<path d="M27.4193 2.1936H26.3226V3.29038H27.4193V2.1936Z" fill="#00AEFF"/>
<path d="M3.29032 2.1936H2.19354V3.29038H3.29032V2.1936Z" fill="#00AEFF"/>
<path d="M5.48386 2.1936H4.38708V3.29038H5.48386V2.1936Z" fill="#00AEFF"/>
<path d="M7.67743 2.1936H6.58066V3.29038H7.67743V2.1936Z" fill="#00AEFF"/>
<path d="M12.0645 6.58057H2.19354V7.67734H12.0645V6.58057Z" fill="#00AEFF"/>
<path d="M12.0645 8.77417H4.38708V9.87094H12.0645V8.77417Z" fill="#00AEFF"/>
<path d="M3.29032 8.77417H2.19354V9.87094H3.29032V8.77417Z" fill="#00AEFF"/>
<path d="M12.0645 10.9678H10.9677V12.0645H12.0645V10.9678Z" fill="#00AEFF"/>
<path d="M9.87096 10.9678H2.19354V12.0645H9.87096V10.9678Z" fill="#00AEFF"/>
<path d="M19.1936 30.7097H14.8065V31.8065H19.1936V30.7097Z" fill="#00AEFF"/>
<path d="M10.9677 26.3225H9.87097V27.4193H10.9677V26.3225Z" fill="#00AEFF"/>
<path d="M24.129 26.3225H12.0645V27.4193H24.129V26.3225Z" fill="#00AEFF"/>
</svg>
