<svg width="35" height="34" viewBox="0 0 35 34" fill="none" xmlns="http://www.w3.org/2000/svg">
<path d="M5.69962 16.8034V16.6479H7.39764V16.8034H5.69962Z" stroke="#00AEFF"/>
<mask id="path-2-inside-1" fill="white">
<path d="M32.1284 0.291341C32.6184 0.48971 33.064 0.783546 33.4394 1.15575C33.818 1.5293 34.1183 1.97464 34.3227 2.4657C34.527 2.95676 34.6313 3.48366 34.6295 4.01554V7.48195C34.6295 7.63518 34.5686 7.78212 34.4603 7.89047C34.3519 7.99882 34.205 8.05969 34.0518 8.05969H27.6967V15.3449C28.5981 15.785 29.3834 16.431 29.9891 17.2307C30.5947 18.0304 31.0038 18.9613 31.1832 19.9483C31.3626 20.9353 31.3073 21.9506 31.0218 22.9123C30.7363 23.874 30.2286 24.755 29.5396 25.4842L33.9535 30.7993C34.0022 30.8577 34.0388 30.9251 34.0614 30.9977C34.084 31.0703 34.092 31.1466 34.085 31.2222C34.078 31.2979 34.0562 31.3715 34.0207 31.4387C33.9853 31.5059 33.9369 31.5655 33.8784 31.614C33.7745 31.7001 33.6437 31.7471 33.5087 31.7468C33.4306 31.7435 33.354 31.7244 33.2835 31.6907C33.2129 31.6569 33.15 31.6092 33.0985 31.5504L28.7077 26.2583C28.4007 26.4805 28.0738 26.6739 27.7313 26.8361V29.9559C27.7313 31.0284 27.3053 32.0571 26.5468 32.8155C25.7884 33.5739 24.7598 34 23.6872 34H4.41972H3.98642C2.89237 33.8962 1.87671 33.3869 1.13907 32.5723C0.40142 31.7577 -0.00487166 30.6966 4.40908e-05 29.5977V27.668C4.40908e-05 27.5148 0.0609124 27.3678 0.169259 27.2595C0.277605 27.1512 0.424554 27.0903 0.577779 27.0903H3.46646V4.04443C3.46646 2.97185 3.89253 1.94321 4.65096 1.18478C5.40938 0.426357 6.43803 0.000278321 7.5106 0.000278321H30.5854C31.1139 -0.00596771 31.6384 0.0929724 32.1284 0.291341Z"/>
</mask>
<path d="M4.41972 32.8619L4.41972 33.3619L4.4206 33.3619L4.41972 32.8619ZM4.09619 32.8619L4.04744 33.3595L4.07176 33.3619H4.09619V32.8619ZM1.99297 31.7999L1.62148 32.1346L1.62148 32.1346L1.99297 31.7999ZM1.15551 29.5977L1.65551 29.6009V29.5977H1.15551ZM1.15551 28.2458V27.7458H0.655515V28.2458H1.15551ZM19.643 28.2458H20.143V27.7458H19.643V28.2458ZM19.643 29.979L20.143 29.9843V29.979H19.643ZM19.935 31.5217L20.3985 31.334L20.3985 31.334L19.935 31.5217ZM26.5412 29.9732L27.0412 29.9763V29.9732H26.5412ZM26.0487 31.5687L26.4635 31.848L26.4635 31.848L26.0487 31.5687ZM21.6189 32.0068L21.2609 32.3559L21.2669 32.3619L21.6189 32.0068ZM20.7985 29.979L21.2985 29.9809V29.979H20.7985ZM4.62193 27.0903H4.12193V27.5903H4.62193V27.0903ZM27.7313 1.12686L28.105 1.45904L28.8448 0.626862H27.7313V1.12686ZM27.6851 1.17886L28.0516 1.51916L28.0588 1.51104L27.6851 1.17886ZM27.4656 1.42151L27.8502 1.74114L27.856 1.73386L27.4656 1.42151ZM26.5412 4.01554L27.0412 4.01554L27.0412 4.01116L26.5412 4.01554ZM26.5412 14.9058V15.4058H27.0412V14.9058H26.5412ZM26.4083 14.9058L26.2834 15.39L26.3448 15.4058H26.4083V14.9058ZM25.8653 14.7961L25.7873 15.29L25.7881 15.2901L25.8653 14.7961ZM25.6457 14.7614L25.7237 14.2675L25.7143 14.2661L25.7049 14.2649L25.6457 14.7614ZM24.8889 14.7152L24.8905 14.2152L24.8899 14.2152L24.8889 14.7152ZM19.5275 17.6385L19.2671 18.0654L19.6844 18.3199L19.9483 17.9085L19.5275 17.6385ZM17.1472 16.9684L17.1478 16.4684H17.1472V16.9684ZM16.9046 16.9684H16.4046V17.4684H16.9046V16.9684ZM16.9046 16.044L16.6316 15.6251L16.4046 15.773V16.044H16.9046ZM19.1346 13.2246L19.1024 12.7257L18.7751 12.7468L18.6641 13.0555L19.1346 13.2246ZM20.8967 11.347L21.3967 11.3475L21.3967 11.3454L20.8967 11.347ZM20.423 10.1106L19.9607 9.92012L19.8413 10.2098L20.0499 10.4435L20.423 10.1106ZM20.8967 7.68994L20.3967 7.68175L20.3967 7.69214L20.8967 7.68994ZM20.6367 5.74874V5.24874H19.9709L20.1566 5.88819L20.6367 5.74874ZM21.8731 5.74874V6.24874H22.3731V5.74874H21.8731ZM21.8731 4.59327H22.3731V4.09327H21.8731V4.59327ZM20.1399 4.59327L19.6933 4.81802L19.8318 5.09327H20.1399V4.59327ZM17.4188 2.8254L17.4426 2.32597L17.4307 2.3254H17.4188V2.8254ZM17.1703 2.8254L16.9193 3.25784L17.0357 3.3254H17.1703V2.8254ZM14.4896 2.10324L14.4898 1.60324H14.4896V2.10324ZM8.74696 8.36589L8.24695 8.36589L8.24696 8.36702L8.74696 8.36589ZM9.0416 10.3186L9.46141 10.5902L9.58786 10.3948L9.51967 10.1722L9.0416 10.3186ZM8.74696 11.3123L8.24695 11.3112L8.24696 11.3131L8.74696 11.3123ZM10.4513 13.1842L10.9295 13.0382L10.8318 12.7183L10.4988 12.6865L10.4513 13.1842ZM12.8315 16.148L13.3309 16.1735L13.3467 15.8645L13.0773 15.7125L12.8315 16.148ZM12.7911 16.9395V17.4395H13.2662L13.2905 16.965L12.7911 16.9395ZM12.4849 16.9395L12.4843 17.4395H12.4849V16.9395ZM7.86302 21.3418V21.8418H8.33981L8.36246 21.3656L7.86302 21.3418ZM6.93287 21.3418H6.43287V21.8418H6.93287V21.3418ZM6.93287 18.4589H7.43287V17.9589H6.93287V18.4589ZM5.7774 18.4589V17.9589H5.2774V18.4589H5.7774ZM7.86302 22.5031H8.36302V22.0031H7.86302V22.5031ZM8.03224 25.9851L8.38579 25.6316L8.38579 25.6316L8.03224 25.9851ZM20.9892 26.1544L21.2944 25.7583L21.1595 25.6544H20.9892V26.1544ZM24.8889 27.4889L24.8875 27.9889L24.8905 27.9889L24.8889 27.4889ZM25.6457 27.4427L25.7049 27.9392L25.7143 27.9381L25.7237 27.9366L25.6457 27.4427ZM25.8653 27.408L25.7881 26.914L25.7873 26.9142L25.8653 27.408ZM26.4083 27.2983V26.7983H26.3448L26.2834 26.8141L26.4083 27.2983ZM26.5412 27.2983H27.0412V26.7983H26.5412V27.2983ZM19.3715 24.3287L18.9444 24.5887L18.9498 24.5975L18.9555 24.6061L19.3715 24.3287ZM19.4639 24.4847L19.0269 24.7275L19.0327 24.738L19.039 24.7482L19.4639 24.4847ZM19.8221 24.9989V25.4989H20.8454L20.2166 24.6916L19.8221 24.9989ZM9.01849 24.9989H8.51849V25.4989H9.01849V24.9989ZM9.01849 22.5031V22.0031H8.51849V22.5031H9.01849ZM12.1325 22.5031V23.0031H12.6325V22.5031H12.1325ZM12.1325 21.3476H12.6325V20.8476H12.1325V21.3476ZM9.03005 21.3476L8.53105 21.3159L8.49731 21.8476H9.03005V21.3476ZM12.4965 18.1007L12.4955 18.6007H12.4965V18.1007ZM12.8662 18.1007L13.2609 17.7938L13.1108 17.6007H12.8662V18.1007ZM13.028 18.3087L12.6333 18.6157L12.6356 18.6187L13.028 18.3087ZM13.4844 18.8864L13.0919 19.1965L13.0994 19.2054L13.4844 18.8864ZM14.2181 19.4064L14.3976 18.9397L14.3915 18.9374L14.2181 19.4064ZM14.8247 19.5277L14.8109 20.0275L14.8216 20.0278L14.8322 20.0277L14.8247 19.5277ZM15.3216 19.4411L15.1789 18.9619L15.1691 18.9648L15.1594 18.9681L15.3216 19.4411ZM16.1651 18.8633L15.7734 18.5525L15.7698 18.5571L16.1651 18.8633ZM16.5868 18.3318L16.1982 18.0172L16.1951 18.021L16.5868 18.3318ZM16.7833 18.0892V17.5892H16.5447L16.3946 17.7746L16.7833 18.0892ZM17.153 18.0892L17.153 18.5892L17.156 18.5892L17.153 18.0892ZM18.9902 18.6149L19.451 18.809L19.6155 18.4185L19.2572 18.1922L18.9902 18.6149ZM18.9382 18.7593L19.3978 18.9563L19.4089 18.9304L19.417 18.9035L18.9382 18.7593ZM18.8458 19.0019L18.3748 18.8337L18.3714 18.8438L18.8458 19.0019ZM18.8458 19.002L19.3167 19.1702L19.3201 19.1601L18.8458 19.002ZM18.5685 20.1575L19.0624 20.2354L19.0634 20.2282L18.5685 20.1575ZM18.5338 20.377L18.0399 20.299L18.0338 20.3378V20.377H18.5338ZM18.4934 21.0818L17.9934 21.0818L17.9934 21.0819L18.4934 21.0818ZM18.528 21.7231H19.028V21.6961L19.0251 21.6693L18.528 21.7231ZM18.6089 22.3702L19.1003 22.278L19.0984 22.2679L19.0961 22.2578L18.6089 22.3702ZM18.6436 22.5551L18.1521 22.6472L18.1552 22.6635L18.1593 22.6796L18.6436 22.5551ZM18.8169 23.1328L19.2912 22.9747L19.2866 22.9608L19.2811 22.9471L18.8169 23.1328ZM19.048 23.7105H19.548V23.5989L19.5005 23.4979L19.048 23.7105ZM9.89665 8.39477L9.39665 8.39477L9.39665 8.39558L9.89665 8.39477ZM14.4839 3.28759L14.4839 3.7876L14.487 3.78758L14.4839 3.28759ZM16.7544 3.92888L16.4901 4.35336L16.4905 4.35355L16.7544 3.92888ZM17.1761 4.00398L17.1378 3.50546L17.1061 3.50789L17.075 3.51431L17.1761 4.00398ZM17.4303 4.00398L17.392 4.50251L17.4002 4.50315L17.4085 4.50351L17.4303 4.00398ZM18.684 4.59327V5.09327H19.811L19.0547 4.25774L18.684 4.59327ZM17.9098 4.59327V4.09327H17.4098V4.59327H17.9098ZM17.9098 5.74874H17.4098V6.24874H17.9098V5.74874ZM19.4004 5.74874L19.8659 5.56637L19.7415 5.24874H19.4004V5.74874ZM19.7586 7.66683L19.2586 7.66476L19.2586 7.66929L19.7586 7.66683ZM19.4928 9.35959H18.9928L19.968 9.51516L19.4928 9.35959ZM19.4928 9.29604H19.9928V9.24334L19.9818 9.19181L19.4928 9.29604ZM4.41972 32.3619H4.09619V33.3619H4.41972V32.3619ZM4.14494 32.3642C3.46008 32.2972 2.82504 31.9765 2.36445 31.4653L1.62148 32.1346C2.24904 32.8312 3.11431 33.2681 4.04744 33.3595L4.14494 32.3642ZM2.36445 31.4653C1.90387 30.954 1.65101 30.289 1.6555 29.6009L0.655525 29.5944C0.649396 30.532 0.993925 31.438 1.62148 32.1346L2.36445 31.4653ZM1.65551 29.5977V28.2458H0.655515V29.5977H1.65551ZM1.15551 28.7458H19.643V27.7458H1.15551V28.7458ZM19.143 28.2458V29.979H20.143V28.2458H19.143ZM19.1431 29.9737C19.1368 30.5682 19.2484 31.1582 19.4715 31.7093L20.3985 31.334C20.2249 30.9054 20.1381 30.4467 20.143 29.9843L19.1431 29.9737ZM19.4715 31.7093C19.6947 32.2605 20.0249 32.7619 20.4431 33.1846L21.154 32.4813C20.8288 32.1526 20.572 31.7626 20.3985 31.334L19.4715 31.7093ZM20.7985 33.333H20.8274V32.333H20.7985V33.333ZM20.7976 32.333L4.41884 32.3619L4.4206 33.3619L20.7994 33.333L20.7976 32.333ZM26.0412 29.9701C26.0383 30.4404 25.8966 30.8993 25.634 31.2894L26.4635 31.848C26.8361 31.2945 27.0371 30.6434 27.0412 29.9763L26.0412 29.9701ZM25.634 31.2894C25.3713 31.6795 24.9993 31.9834 24.5647 32.163L24.9465 33.0872C25.5631 32.8325 26.0908 32.4014 26.4635 31.848L25.634 31.2894ZM24.5647 32.163C24.13 32.3426 23.652 32.3899 23.1906 32.2989L22.9972 33.28C23.6518 33.4091 24.3299 33.342 24.9465 33.0872L24.5647 32.163ZM23.1906 32.2989C22.7292 32.208 22.3049 31.9828 21.9709 31.6517L21.2669 32.3619C21.7407 32.8316 22.3426 33.151 22.9972 33.28L23.1906 32.2989ZM21.9769 31.6578C21.5397 31.2094 21.2961 30.6072 21.2985 29.9809L20.2985 29.977C20.2951 30.8655 20.6407 31.7197 21.2609 32.3559L21.9769 31.6578ZM21.2985 29.979V27.668H20.2985V29.979H21.2985ZM21.2985 27.668C21.2985 27.3822 21.185 27.1081 20.9829 26.9059L20.2757 27.6131C20.2903 27.6276 20.2985 27.6474 20.2985 27.668H21.2985ZM20.9829 26.9059C20.7807 26.7038 20.5066 26.5903 20.2208 26.5903V27.5903C20.2414 27.5903 20.2612 27.5985 20.2757 27.6131L20.9829 26.9059ZM20.2208 26.5903H4.62193V27.5903H20.2208V26.5903ZM5.12193 27.0903V4.01554H4.12193V27.0903H5.12193ZM5.12193 4.01554C5.12193 3.38202 5.37359 2.77445 5.82155 2.32649L5.11445 1.61938C4.47895 2.25488 4.12193 3.11681 4.12193 4.01554H5.12193ZM5.82155 2.32649C6.26952 1.87853 6.87709 1.62686 7.5106 1.62686V0.626862C6.61187 0.626862 5.74995 0.983883 5.11445 1.61938L5.82155 2.32649ZM7.5106 1.62686H27.7313V0.626862H7.5106V1.62686ZM27.3576 0.794681L27.3114 0.846677L28.0588 1.51104L28.105 1.45904L27.3576 0.794681ZM27.3187 0.838633C27.2597 0.902206 27.1598 1.00333 27.0751 1.10916L27.856 1.73386C27.91 1.66637 27.9603 1.61728 28.0515 1.51908L27.3187 0.838633ZM27.081 1.10193C26.4003 1.92104 26.0319 2.9549 26.0412 4.01992L27.0412 4.01116C27.0339 3.18262 27.3205 2.37832 27.8501 1.74108L27.081 1.10193ZM26.0412 4.01554V14.9058H27.0412V4.01554H26.0412ZM26.5412 14.4058H26.4083V15.4058H26.5412V14.4058ZM26.5333 14.4217C26.3346 14.3704 26.1389 14.3328 25.9424 14.3021L25.7881 15.2901C25.9614 15.3172 26.1239 15.3488 26.2834 15.39L26.5333 14.4217ZM25.9432 14.3022L25.7237 14.2675L25.5677 15.2553L25.7873 15.29L25.9432 14.3022ZM25.7049 14.2649C25.4346 14.2327 25.1627 14.2161 24.8905 14.2152L24.8872 15.2152C25.121 15.216 25.3544 15.2302 25.5865 15.2579L25.7049 14.2649ZM24.8899 14.2152C23.7387 14.2129 22.6054 14.5006 21.5947 15.0517L22.0734 15.9297C22.9367 15.459 23.9046 15.2133 24.8879 15.2152L24.8899 14.2152ZM21.5947 15.0517C20.584 15.6028 19.7283 16.3996 19.1067 17.3685L19.9483 17.9085C20.4793 17.0809 21.2101 16.4004 22.0734 15.9297L21.5947 15.0517ZM19.7879 17.2117C18.9926 16.7266 18.0793 16.4695 17.1478 16.4684L17.1466 17.4684C17.8948 17.4693 18.6284 17.6758 19.2671 18.0654L19.7879 17.2117ZM17.1472 16.4684H16.9046V17.4684H17.1472V16.4684ZM17.4046 16.9684V16.044H16.4046V16.9684H17.4046ZM17.1775 16.4629C18.2996 15.7318 19.152 14.6541 19.6051 13.3938L18.6641 13.0555C18.2848 14.1106 17.571 15.0129 16.6316 15.6251L17.1775 16.4629ZM19.1668 13.7236C19.7707 13.6846 20.3372 13.4174 20.7513 12.9761L20.0221 12.2918C19.7817 12.5479 19.4529 12.7031 19.1024 12.7257L19.1668 13.7236ZM20.7513 12.9761C21.1654 12.5349 21.3961 11.9526 21.3967 11.3475L20.3967 11.3465C20.3964 11.6977 20.2624 12.0357 20.0221 12.2918L20.7513 12.9761ZM21.3967 11.3454C21.3948 10.767 21.1812 10.2093 20.796 9.77774L20.0499 10.4435C20.2723 10.6927 20.3956 11.0147 20.3967 11.3486L21.3967 11.3454ZM20.8853 10.3012C21.2268 9.4724 21.4007 8.58412 21.3967 7.68773L20.3967 7.69214C20.4001 8.45632 20.2519 9.21359 19.9607 9.92012L20.8853 10.3012ZM21.3967 7.69812C21.4082 6.99178 21.3139 6.2877 21.1169 5.6093L20.1566 5.88819C20.3258 6.4707 20.4067 7.07526 20.3968 7.68175L21.3967 7.69812ZM20.6367 6.24874H21.8731V5.24874H20.6367V6.24874ZM22.3731 5.74874V4.59327H21.3731V5.74874H22.3731ZM21.8731 4.09327H20.1399V5.09327H21.8731V4.09327ZM20.5865 4.36853C20.2904 3.78007 19.8433 3.28085 19.2909 2.92195L18.7461 3.76052C19.1499 4.02288 19.4768 4.38783 19.6933 4.81802L20.5865 4.36853ZM19.2909 2.92195C18.7385 2.56306 18.1006 2.35738 17.4426 2.32597L17.3949 3.32484C17.876 3.3478 18.3422 3.49816 18.7461 3.76052L19.2909 2.92195ZM17.4188 2.3254H17.1703V3.3254H17.4188V2.3254ZM17.4213 2.39297C16.5308 1.87607 15.5195 1.60363 14.4898 1.60324L14.4895 2.60323C15.3429 2.60356 16.1812 2.82938 16.9193 3.25784L17.4213 2.39297ZM14.4896 1.60324C11.0074 1.60324 8.24696 4.68254 8.24696 8.36589H9.24696C9.24696 5.15108 11.6399 2.60324 14.4896 2.60324V1.60324ZM8.24696 8.36702C8.24857 9.07815 8.35524 9.78513 8.56353 10.4651L9.51967 10.1722C9.34024 9.58643 9.24834 8.97737 9.24695 8.36475L8.24696 8.36702ZM8.62179 10.047C8.37811 10.4237 8.24799 10.8626 8.24696 11.3112L9.24695 11.3135C9.24754 11.0568 9.32199 10.8057 9.46141 10.5902L8.62179 10.047ZM8.24696 11.3131C8.24791 11.9054 8.46931 12.476 8.86802 12.9139L9.60744 12.2407C9.37601 11.9865 9.24751 11.6553 9.24696 11.3115L8.24696 11.3131ZM8.86802 12.9139C9.26673 13.3518 9.81419 13.6256 10.4037 13.6819L10.4988 12.6865C10.1566 12.6538 9.83887 12.4949 9.60744 12.2407L8.86802 12.9139ZM9.97305 13.3302C10.3941 14.7098 11.3296 15.8746 12.5858 16.5834L13.0773 15.7125C12.0446 15.1298 11.2756 14.1723 10.9295 13.0382L9.97305 13.3302ZM12.3322 16.1225L12.2918 16.914L13.2905 16.965L13.3309 16.1735L12.3322 16.1225ZM12.7911 16.4395H12.4849V17.4395H12.7911V16.4395ZM12.4855 16.4395C11.1682 16.438 9.90096 16.9441 8.94712 17.8526L9.63682 18.5767C10.4044 17.8456 11.4242 17.4383 12.4843 17.4395L12.4855 16.4395ZM8.94712 17.8526C7.99328 18.7612 7.42616 20.0023 7.36359 21.3181L8.36246 21.3656C8.41281 20.3067 8.86921 19.3079 9.63682 18.5767L8.94712 17.8526ZM7.86302 20.8418H6.93287V21.8418H7.86302V20.8418ZM7.43287 21.3418V18.4589H6.43287V21.3418H7.43287ZM6.93287 17.9589H5.7774V18.9589H6.93287V17.9589ZM5.2774 18.4589V21.9253H6.2774V18.4589H5.2774ZM5.2774 21.9253C5.2774 22.2112 5.39094 22.4853 5.59306 22.6874L6.30017 21.9803C6.28559 21.9657 6.2774 21.946 6.2774 21.9253H5.2774ZM5.59306 22.6874C5.79517 22.8895 6.0693 23.0031 6.35513 23.0031V22.0031C6.33451 22.0031 6.31474 21.9949 6.30017 21.9803L5.59306 22.6874ZM6.35513 23.0031H7.86302V22.0031H6.35513V23.0031ZM7.36302 22.5031V25.5766H8.36302V22.5031H7.36302ZM7.36302 25.5766C7.36302 25.8625 7.47657 26.1366 7.67868 26.3387L8.38579 25.6316C8.37121 25.617 8.36302 25.5972 8.36302 25.5766H7.36302ZM7.67868 26.3387C7.8808 26.5408 8.15493 26.6544 8.44076 26.6544V25.6544C8.42014 25.6544 8.40037 25.6462 8.38579 25.6316L7.67868 26.3387ZM8.44076 26.6544H20.9892V25.6544H8.44076V26.6544ZM20.684 26.5504C21.8889 27.479 23.3662 27.9846 24.8875 27.9889L24.8903 26.9889C23.589 26.9852 22.3251 26.5527 21.2944 25.7583L20.684 26.5504ZM24.8905 27.9889C25.1627 27.988 25.4346 27.9714 25.7049 27.9392L25.5865 26.9462C25.3544 26.9739 25.121 26.9882 24.8872 26.9889L24.8905 27.9889ZM25.7237 27.9366L25.9432 27.9019L25.7873 26.9142L25.5677 26.9488L25.7237 27.9366ZM25.9424 27.902C26.1389 27.8714 26.3346 27.8337 26.5333 27.7824L26.2834 26.8141C26.1239 26.8553 25.9614 26.887 25.7881 26.914L25.9424 27.902ZM26.4083 27.7983H26.5412V26.7983H26.4083V27.7983ZM26.0412 27.2983V29.9732H27.0412V27.2983H26.0412ZM18.9555 24.6061C18.9772 24.6386 18.9967 24.6732 19.0269 24.7275L19.901 24.2419C19.8734 24.1922 19.8352 24.1228 19.7875 24.0514L18.9555 24.6061ZM19.039 24.7482C19.1586 24.941 19.2883 25.1272 19.4277 25.3061L20.2166 24.6916C20.0991 24.5407 19.9897 24.3837 19.8889 24.2212L19.039 24.7482ZM19.8221 24.4989H9.01849V25.4989H19.8221V24.4989ZM9.51849 24.9989V22.5031H8.51849V24.9989H9.51849ZM9.01849 23.0031H12.1325V22.0031H9.01849V23.0031ZM12.6325 22.5031V21.3476H11.6325V22.5031H12.6325ZM12.1325 20.8476H9.03005V21.8476H12.1325V20.8476ZM9.52904 21.3793C9.57687 20.6255 9.9104 19.9184 10.4616 19.4021L9.77799 18.6723C9.04096 19.3626 8.59501 20.3081 8.53105 21.3159L9.52904 21.3793ZM10.4616 19.4021C11.0128 18.8858 11.7402 18.5992 12.4955 18.6007L12.4975 17.6007C11.4876 17.5987 10.515 17.9819 9.77799 18.6723L10.4616 19.4021ZM12.4965 18.6007H12.8662V17.6007H12.4965V18.6007ZM12.4715 18.4077L12.6333 18.6157L13.4227 18.0017L13.2609 17.7938L12.4715 18.4077ZM12.6356 18.6187L13.092 19.1964L13.8767 18.5765L13.4203 17.9988L12.6356 18.6187ZM13.0994 19.2054C13.3501 19.508 13.6762 19.7391 14.0447 19.8754L14.3915 18.9374C14.1879 18.8622 14.0079 18.7346 13.8694 18.5675L13.0994 19.2054ZM14.0387 19.8731C14.2854 19.968 14.5466 20.0202 14.8109 20.0275L14.8386 19.0279C14.6876 19.0237 14.5385 18.9939 14.3976 18.9397L14.0387 19.8731ZM14.8322 20.0277C15.054 20.0243 15.2739 19.986 15.4838 19.914L15.1594 18.9681C15.0492 19.0059 14.9337 19.026 14.8172 19.0278L14.8322 20.0277ZM15.4643 19.9203C15.8991 19.7908 16.2825 19.5282 16.5604 19.1695L15.7698 18.5571C15.62 18.7505 15.4133 18.8921 15.1789 18.9619L15.4643 19.9203ZM16.5568 19.1741L16.9785 18.6426L16.1951 18.021L15.7734 18.5525L16.5568 19.1741ZM16.9754 18.6464L17.1719 18.4038L16.3946 17.7746L16.1982 18.0172L16.9754 18.6464ZM16.7833 18.5892H17.153V17.5892H16.7833V18.5892ZM17.156 18.5892C17.7105 18.5859 18.2543 18.7415 18.7232 19.0377L19.2572 18.1922C18.6268 17.794 17.8956 17.5848 17.1501 17.5892L17.156 18.5892ZM18.5294 18.4208C18.5027 18.4843 18.4793 18.5492 18.4594 18.6152L19.417 18.9035C19.4266 18.8714 19.438 18.8399 19.451 18.809L18.5294 18.4208ZM18.4786 18.5624C18.4369 18.6598 18.403 18.7551 18.3749 18.8338L19.3167 19.1701C19.3463 19.0871 19.3702 19.0207 19.3978 18.9563L18.4786 18.5624ZM18.3714 18.8438L18.3714 18.8439L19.3201 19.1601L19.3201 19.1601L18.3714 18.8438ZM18.3749 18.8338C18.34 18.9314 18.2728 19.1528 18.2314 19.3005L19.1944 19.5701C19.2339 19.4289 19.2937 19.2343 19.3166 19.1702L18.3749 18.8338ZM18.2314 19.3005C18.2089 19.3808 18.197 19.4298 18.1878 19.4694C18.1791 19.5064 18.1762 19.5198 18.1686 19.5464L19.1301 19.8211C19.1456 19.7667 19.1542 19.7282 19.1615 19.6973C19.1681 19.669 19.1764 19.6342 19.1944 19.5701L18.2314 19.3005ZM18.1686 19.5464C18.1335 19.669 18.0937 19.9449 18.0735 20.0868L19.0634 20.2282C19.0748 20.1483 19.0887 20.0541 19.1023 19.9711C19.1091 19.9296 19.1155 19.8931 19.1212 19.8638C19.1275 19.831 19.1306 19.8192 19.1301 19.8211L18.1686 19.5464ZM18.0746 20.0795L18.0399 20.299L19.0277 20.455L19.0623 20.2354L18.0746 20.0795ZM18.0338 20.377C18.0338 20.4674 18.0259 20.5626 18.0154 20.6845C18.0056 20.7988 17.9934 20.9385 17.9934 21.0818H18.9934C18.9934 20.9883 19.0013 20.8911 19.0117 20.77C19.0215 20.6565 19.0338 20.5177 19.0338 20.377H18.0338ZM17.9934 21.0819C17.9934 21.3141 18.0059 21.5461 18.0309 21.777L19.0251 21.6693C19.004 21.4742 18.9934 21.278 18.9934 21.0818L17.9934 21.0819ZM18.028 21.7231V21.908H19.028V21.7231H18.028ZM18.028 21.908C18.028 22.1382 18.0973 22.3768 18.1217 22.4826L19.0961 22.2578C19.0512 22.0631 19.028 21.9898 19.028 21.908H18.028ZM18.1175 22.4623L18.1521 22.6472L19.135 22.4629L19.1003 22.278L18.1175 22.4623ZM18.1593 22.6796C18.2093 22.8739 18.269 23.1095 18.3526 23.3185L19.2811 22.9471C19.2261 22.8095 19.1818 22.6406 19.1278 22.4305L18.1593 22.6796ZM18.3425 23.2909C18.4144 23.5064 18.4988 23.7176 18.5955 23.9232L19.5005 23.4979C19.4205 23.3277 19.3507 23.1531 19.2912 22.9747L18.3425 23.2909ZM18.548 23.7105C18.548 23.8846 18.6251 24.0124 18.6498 24.0532C18.6627 24.0744 18.6819 24.1037 18.6834 24.106C18.69 24.1163 18.6868 24.1121 18.6816 24.1017L19.5761 23.6545C19.5564 23.6152 19.5359 23.5828 19.5246 23.5653C19.5216 23.5605 19.5187 23.556 19.5163 23.5525C19.5138 23.5485 19.5121 23.5459 19.5103 23.5431C19.5086 23.5406 19.5074 23.5388 19.5066 23.5374C19.5062 23.5367 19.5059 23.5362 19.5056 23.5359C19.5055 23.5357 19.5055 23.5356 19.5054 23.5355C19.5054 23.5355 19.5054 23.5355 19.5054 23.5354C19.5053 23.5354 19.5053 23.5354 19.5053 23.5354C19.5053 23.5354 19.5053 23.5354 19.5054 23.5354C19.5054 23.5355 19.5054 23.5355 19.5054 23.5355C19.5055 23.5356 19.5055 23.5358 19.5056 23.5359C19.5059 23.5363 19.5062 23.5368 19.5066 23.5375C19.5074 23.539 19.5086 23.5412 19.5102 23.5443C19.5133 23.5502 19.5182 23.5603 19.5235 23.5741C19.534 23.6016 19.548 23.649 19.548 23.7105H18.548ZM18.6816 24.1017C18.7097 24.1579 18.8512 24.4356 18.9444 24.5887L19.7986 24.0687C19.73 23.9561 19.6058 23.7138 19.5761 23.6545L18.6816 24.1017ZM10.5072 9.44718C10.4343 9.10084 10.3972 8.7479 10.3966 8.39396L9.39665 8.39558C9.39734 8.81825 9.44159 9.23971 9.52871 9.6533L10.5072 9.44718ZM10.3966 8.39477C10.3966 5.80525 12.2789 3.78759 14.4839 3.78759V2.78759C11.6279 2.78759 9.39665 5.35716 9.39665 8.39477H10.3966ZM14.487 3.78758C15.1947 3.78317 15.8893 3.97933 16.4901 4.35336L17.0186 3.5044C16.2573 3.03054 15.3774 2.78201 14.4807 2.7876L14.487 3.78758ZM16.4905 4.35355C16.7251 4.49935 17.0067 4.5495 17.2772 4.49366L17.075 3.51431C17.0555 3.51834 17.0352 3.51472 17.0183 3.5042L16.4905 4.35355ZM17.2144 4.50251C17.2735 4.49797 17.3329 4.49797 17.392 4.50251L17.4686 3.50546C17.3585 3.49699 17.2479 3.49699 17.1378 3.50546L17.2144 4.50251ZM17.4085 4.50351C17.58 4.511 17.7482 4.55245 17.9035 4.62545L18.3289 3.72045C18.0538 3.59114 17.7558 3.51773 17.4521 3.50446L17.4085 4.50351ZM17.9035 4.62545C18.0589 4.69846 18.1981 4.80157 18.3133 4.92881L19.0547 4.25774C18.8507 4.03238 18.604 3.84975 18.3289 3.72045L17.9035 4.62545ZM18.684 4.09327H17.9098V5.09327H18.684V4.09327ZM17.4098 4.59327V5.74874H18.4098V4.59327H17.4098ZM17.9098 6.24874H19.4004V5.24874H17.9098V6.24874ZM18.9348 5.93112C19.1512 6.48339 19.261 7.07163 19.2586 7.66476L20.2586 7.66889C20.2616 6.94955 20.1283 6.23615 19.8659 5.56637L18.9348 5.93112ZM19.2586 7.66929C19.2612 8.19049 19.1798 8.70869 19.0177 9.20402L19.968 9.51516C20.1636 8.91782 20.2617 8.29289 20.2586 7.66436L19.2586 7.66929ZM19.9928 9.35959V9.29604H18.9928V9.35959H19.9928ZM19.9818 9.19181C19.9211 8.90679 19.8451 8.62526 19.7541 8.34842L18.8041 8.66067C18.8839 8.90344 18.9505 9.15033 19.0038 9.40027L19.9818 9.19181ZM33.4394 1.15575L32.7352 1.86583L32.7371 1.86762L33.4394 1.15575ZM32.1284 0.291341L32.5037 -0.635575L32.5037 -0.635575L32.1284 0.291341ZM30.5854 0.000278321L30.5854 1.00035L30.5972 1.00021L30.5854 0.000278321ZM4.65096 1.18478L3.94385 0.477675L3.94385 0.477675L4.65096 1.18478ZM3.46646 27.0903V28.0903H4.46646V27.0903H3.46646ZM4.40908e-05 29.5977L1.00004 29.6021V29.5977H4.40908e-05ZM1.13907 32.5723L0.397806 33.2435L0.397807 33.2435L1.13907 32.5723ZM3.98642 34L3.89194 34.9955L3.93907 35H3.98642V34ZM27.7313 26.8361L27.3033 25.9323L26.7313 26.2032V26.8361H27.7313ZM28.7077 26.2583L29.4773 25.6198L28.8798 24.8996L28.1216 25.4481L28.7077 26.2583ZM33.0985 31.5504L32.3289 32.1889L32.3375 32.1993L32.3465 32.2095L33.0985 31.5504ZM33.5087 31.7468L33.4667 32.7459L33.4867 32.7468L33.5067 32.7468L33.5087 31.7468ZM33.8784 31.614L34.5165 32.384L34.5167 32.3838L33.8784 31.614ZM33.9535 30.7993L33.1842 31.4382L33.1853 31.4395L33.9535 30.7993ZM29.5396 25.4842L28.8128 24.7974L28.2043 25.4415L28.7703 26.123L29.5396 25.4842ZM27.6967 15.3449H26.6967V15.9695L27.2579 16.2435L27.6967 15.3449ZM27.6967 8.05969V7.05969H26.6967V8.05969H27.6967ZM34.6295 4.01554L33.6295 4.0121V4.01554H34.6295ZM34.1435 0.445675C33.674 -0.0198998 33.1166 -0.387445 32.5037 -0.635575L31.7531 1.21826C32.1202 1.36686 32.4541 1.58699 32.7352 1.86582L34.1435 0.445675ZM32.5037 -0.635575C31.8908 -0.883705 31.2347 -1.00746 30.5735 -0.999652L30.5972 1.00021C30.9931 0.995529 31.3861 1.06965 31.7531 1.21826L32.5037 -0.635575ZM30.5854 -0.999722H7.5106V1.00028H30.5854V-0.999722ZM7.5106 -0.999722C6.17281 -0.999722 4.88981 -0.468286 3.94385 0.477675L5.35807 1.89189C5.92895 1.321 6.70325 1.00028 7.5106 1.00028V-0.999722ZM3.94385 0.477675C2.99789 1.42364 2.46646 2.70663 2.46646 4.04443H4.46646C4.46646 3.23707 4.78718 2.46278 5.35807 1.89189L3.94385 0.477675ZM2.46646 4.04443V27.0903H4.46646V4.04443H2.46646ZM3.46646 26.0903H0.577779V28.0903H3.46646V26.0903ZM0.577779 26.0903C0.159334 26.0903 -0.241969 26.2565 -0.53785 26.5524L0.876367 27.9666C0.797179 28.0458 0.689775 28.0903 0.577779 28.0903V26.0903ZM-0.53785 26.5524C-0.833726 26.8483 -0.999956 27.2496 -0.999956 27.668H1.00004C1.00004 27.78 0.955551 27.8874 0.876367 27.9666L-0.53785 26.5524ZM-0.999956 27.668V29.5977H1.00004V27.668H-0.999956ZM-0.999946 29.5932C-1.00598 30.9418 -0.507397 32.2438 0.397806 33.2435L1.88033 31.9011C1.31024 31.2715 0.996235 30.4515 1.00003 29.6021L-0.999946 29.5932ZM0.397807 33.2435C1.30301 34.2432 2.54937 34.8681 3.89194 34.9955L4.0809 33.0045C3.23536 32.9242 2.45041 32.5306 1.88032 31.9011L0.397807 33.2435ZM3.98642 35H4.41972V33H3.98642V35ZM4.41972 35H23.6872V33H4.41972V35ZM23.6872 35C25.025 35 26.308 34.4686 27.2539 33.5226L25.8397 32.1084C25.2688 32.6793 24.4945 33 23.6872 33V35ZM27.2539 33.5226C28.1999 32.5766 28.7313 31.2936 28.7313 29.9559H26.7313C26.7313 30.7632 26.4106 31.5375 25.8397 32.1084L27.2539 33.5226ZM28.7313 29.9559V26.8361H26.7313V29.9559H28.7313ZM28.1594 27.7398C28.5573 27.5514 28.9371 27.3267 29.2938 27.0686L28.1216 25.4481C27.8642 25.6343 27.5903 25.7964 27.3033 25.9323L28.1594 27.7398ZM27.9381 26.8969L32.3289 32.1889L33.8681 30.9119L29.4773 25.6198L27.9381 26.8969ZM32.3465 32.2095C32.4872 32.3701 32.659 32.5004 32.8516 32.5926L33.7154 30.7888C33.7669 30.8134 33.8129 30.8483 33.8505 30.8913L32.3465 32.2095ZM32.8516 32.5926C33.0441 32.6848 33.2533 32.737 33.4667 32.7459L33.5507 30.7477C33.6078 30.7501 33.6639 30.7641 33.7154 30.7888L32.8516 32.5926ZM33.5067 32.7468C33.8754 32.7476 34.2326 32.6192 34.5165 32.384L33.2404 30.844C33.3164 30.781 33.412 30.7466 33.5106 30.7468L33.5067 32.7468ZM34.5167 32.3838C34.6764 32.2514 34.8085 32.0887 34.9053 31.9051L33.1362 30.9722C33.1621 30.9231 33.1975 30.8796 33.2402 30.8441L34.5167 32.3838ZM34.9053 31.9051C35.0021 31.7215 35.0617 31.5207 35.0808 31.314L33.0892 31.1304C33.0943 31.0752 33.1103 31.0214 33.1362 30.9722L34.9053 31.9051ZM35.0808 31.314C35.0998 31.1074 35.0779 30.899 35.0163 30.7009L33.1065 31.2945C33.09 31.2415 33.0841 31.1857 33.0892 31.1304L35.0808 31.314ZM35.0163 30.7009C34.9547 30.5027 34.8546 30.3186 34.7218 30.1592L33.1853 31.4395C33.1498 31.3969 33.123 31.3476 33.1065 31.2945L35.0163 30.7009ZM34.7229 30.1605L30.309 24.8453L28.7703 26.123L33.1842 31.4382L34.7229 30.1605ZM30.2665 26.1709C31.0632 25.3277 31.6503 24.3089 31.9804 23.1969L30.0631 22.6277C29.8223 23.439 29.3939 24.1823 28.8128 24.7974L30.2665 26.1709ZM31.9804 23.1969C32.3106 22.0849 32.3745 20.9108 32.1671 19.7695L30.1993 20.1272C30.3507 20.9598 30.304 21.8164 30.0631 22.6277L31.9804 23.1969ZM32.1671 19.7695C31.9596 18.6282 31.4866 17.5517 30.7862 16.627L29.1919 17.8345C29.7029 18.5091 30.048 19.2945 30.1993 20.1272L32.1671 19.7695ZM30.7862 16.627C30.0859 15.7022 29.1778 14.9552 28.1354 14.4463L27.2579 16.2435C28.0184 16.6148 28.6809 17.1598 29.1919 17.8345L30.7862 16.627ZM28.6967 15.3449V8.05969H26.6967V15.3449H28.6967ZM27.6967 9.05969H34.0518V7.05969H27.6967V9.05969ZM34.0518 9.05969C34.4702 9.05969 34.8715 8.89346 35.1674 8.59757L33.7532 7.18337C33.8324 7.10417 33.9398 7.05969 34.0518 7.05969V9.05969ZM35.1674 8.59757C35.4633 8.3017 35.6295 7.9004 35.6295 7.48195H33.6295C33.6295 7.36995 33.674 7.26255 33.7532 7.18337L35.1674 8.59757ZM35.6295 7.48195V4.01554H33.6295V7.48195H35.6295ZM35.6295 4.01898C35.6318 3.35406 35.5014 2.69537 35.2459 2.08148L33.3994 2.84992C33.5527 3.21814 33.6309 3.61325 33.6295 4.0121L35.6295 4.01898ZM35.2459 2.08148C34.9904 1.4676 34.615 0.910857 34.1417 0.443874L32.7371 1.86762C33.021 2.14773 33.2462 2.48168 33.3994 2.84992L35.2459 2.08148Z" fill="#00AEFF" mask="url(#path-2-inside-1)"/>
<path d="M27.7572 23.6844C27.103 24.3386 26.2516 24.7502 25.3426 24.8612V24.7046C26.2102 24.5943 27.0223 24.1995 27.6473 23.5745C28.2723 22.9494 28.6672 22.1373 28.7774 21.2698H28.9341C28.823 22.1787 28.4114 23.0302 27.7572 23.6844Z" stroke="#00AEFF"/>
<path d="M5.69962 15.0703V14.9148H8.74376V15.0703H5.69962Z" stroke="#00AEFF"/>
<path d="M23.6094 4.09321V3.93774H25.4981V4.09321H23.6094Z" stroke="#00AEFF"/>
<path d="M24.7649 5.82637V5.6709H25.4981V5.82637H24.7649Z" stroke="#00AEFF"/>
<path d="M23.6094 7.55977V7.4043H25.4981V7.55977H23.6094Z" stroke="#00AEFF"/>
</svg>
