<svg width="1246" height="181" viewBox="0 0 1246 181" fill="none" xmlns="http://www.w3.org/2000/svg">
<path d="M1245.3 0H0V179.982H1245.3V0Z" fill="#332F30"/>
<path opacity="0.05" d="M1113.75 168.602L1126.92 171.071L1130.39 161.339L1137.37 162.746L1143.58 163.911L1147.05 154.179L1147.22 154.212L1147.28 154.041L1160.2 156.827L1163.7 147.017L1163.86 147.051L1163.93 146.876L1183.89 151.179L1181.86 156.506L1168.93 153.722L1165.44 163.532L1165.27 163.498L1165.21 163.67L1152.28 160.881L1148.79 170.692L1141.81 169.289L1135.6 168.124L1132.13 177.856L1125.19 176.458L1111.96 173.977L1113.75 168.602Z" fill="white"/>
<path opacity="0.05" d="M405.602 136.626L418.774 139.095L422.246 129.364L429.228 130.77L435.432 131.935L438.905 122.203L439.07 122.237L439.134 122.066L452.059 124.851L455.55 115.042L455.716 115.075L455.781 114.901L475.747 119.203L473.716 124.53L460.79 121.746L457.292 131.556L457.128 131.522L457.064 131.694L444.139 128.906L440.642 138.716L433.662 137.313L427.454 136.148L423.981 145.88L417.046 144.483L403.817 142.001L405.602 136.626Z" fill="white"/>
<path opacity="0.05" d="M1050.37 38.5229L1063.78 40.1199L1066.11 30.1976L1073.23 31.1412L1079.55 31.8957L1081.88 21.9734L1082.05 21.9956L1082.09 21.8211L1095.29 23.7496L1097.63 13.7483L1097.8 13.7705L1097.84 13.5927L1118.23 16.571L1116.83 22.0104L1103.63 20.0839L1101.28 30.086L1101.11 30.0631L1101.07 30.2382L1087.87 28.3072L1085.52 38.3098L1078.41 37.3692L1072.09 36.6152L1069.76 46.5376L1062.69 45.5998L1049.22 43.9945L1050.37 38.5229Z" fill="white"/>
<path opacity="0.05" d="M607.764 68.5581L599.978 60.1985L588.863 65.8309L584.822 61.3265L581.157 57.3873L570.042 63.0197L569.946 62.913L569.749 63.0106L562.425 54.534L551.229 60.216L551.133 60.1094L550.932 60.2088L539.618 47.1148L545.8 44.0967L553.126 52.5722L564.328 46.8931L564.423 46.9999L564.621 46.9018L571.941 55.3801L583.143 49.7001L587.186 54.2016L590.855 58.1426L601.969 52.5102L605.984 56.9851L613.802 65.3817L607.764 68.5581Z" fill="white"/>
<path opacity="0.05" d="M868.762 137.725L867.054 131.125L858.357 132.278L857.53 128.752L856.728 125.645L848.03 126.798L848.011 126.715L847.857 126.733L846.471 120.154L837.702 121.316L837.682 121.233L837.527 121.251L835.385 111.089L840.183 110.518L841.567 117.094L850.336 115.931L850.355 116.015L850.509 115.997L851.895 122.576L860.664 121.413L861.491 124.937L862.3 128.049L870.998 126.896L871.813 130.402L873.533 137.03L868.762 137.725Z" fill="white"/>
<path opacity="0.05" d="M117.597 169.586L129.812 166.425L125.869 157.306L132.412 155.708L138.167 154.218L134.226 145.098L134.381 145.06L134.318 144.897L146.557 142.085L142.581 132.892L142.736 132.854L142.67 132.692L161.575 128.346L163.627 133.39L151.387 136.202L155.361 145.396L155.205 145.433L155.27 145.596L143.03 148.408L147.007 157.602L140.469 159.199L134.713 160.688L138.655 169.807L132.156 171.396L119.881 174.571L117.597 169.586Z" fill="white"/>
<path opacity="0.05" d="M1113.79 73.6717L1083.74 89.5066L1104.8 112.1L1134.86 96.2654L1113.79 73.6717Z" fill="white"/>
<path opacity="0.05" d="M464.825 32.4712L434.084 48.666L455.629 71.7732L486.37 55.5784L464.825 32.4712Z" fill="white"/>
<path opacity="0.05" d="M819.958 47.3132L782.73 40.3359L773.448 68.3202L810.676 75.2974L819.958 47.3132Z" fill="white"/>
<path opacity="0.05" d="M919.498 23.0463L896.4 0.00244141L865.744 17.3647L888.842 40.4086L919.498 23.0463Z" fill="white"/>
<path opacity="0.05" d="M51.6348 17.9766L10.3597 10.241L0.0686299 41.2669L41.3438 49.0026L51.6348 17.9766Z" fill="white"/>
<path opacity="0.05" d="M306.847 145.416L269.323 151.415L277.304 179.621L314.828 173.622L306.847 145.416Z" fill="white"/>
<path opacity="0.05" d="M558.887 152.018L521.658 145.041L512.376 173.025L549.605 180.002L558.887 152.018Z" fill="white"/>
<path opacity="0.05" d="M906.942 85.5906L892.597 93.1482L902.651 103.932L916.996 96.374L906.942 85.5906Z" fill="white"/>
<path opacity="0.05" d="M1060.31 145.451L1059.12 141.558L1053.94 142.457L1052.87 138.996L1058.05 138.098L1056.86 134.204L1061.46 133.405L1062.66 137.299L1067.84 136.4L1068.9 139.86L1063.72 140.759L1064.92 144.652L1060.31 145.451Z" fill="white"/>
<path opacity="0.05" d="M121.235 77.5151L122.566 67.9954L109.902 66.9949L111.085 58.534L123.749 59.5346L125.08 50.0137L136.338 50.9031L135.006 60.424L147.671 61.4245L146.488 69.8854L133.823 68.8848L132.492 78.4045L121.235 77.5151Z" fill="white"/>
<path opacity="0.05" d="M573.604 103.3L575.683 99.6201L570.787 98.0577L572.634 94.7871L577.53 96.3494L579.609 92.6688L583.96 94.0575L581.882 97.7382L586.777 99.3005L584.93 102.571L580.034 101.009L577.956 104.689L573.604 103.3Z" fill="white"/>
<path opacity="0.05" d="M959.09 71.3745L959.396 64.7965L950.643 64.5667L950.915 58.7206L959.667 58.9504L959.973 52.3711L967.75 52.5753L967.445 59.1545L976.197 59.3843L975.926 65.2304L967.173 65.0006L966.868 71.5799L959.09 71.3745Z" fill="white"/>
<path opacity="0.05" d="M329.202 71.8693L325.781 65.8105L317.719 68.3828L314.678 62.9981L322.74 60.4259L319.318 54.366L326.481 52.0803L329.903 58.1402L337.965 55.5679L341.006 60.9526L332.944 63.5249L336.366 69.5848L329.202 71.8693Z" fill="white"/>
<path opacity="0.05" d="M743.294 146.872L736.781 136.833L723.428 141.729L717.639 132.808L730.993 127.912L724.479 117.873L736.349 113.521L742.863 123.56L756.216 118.665L762.005 127.586L748.652 132.482L755.165 142.52L743.294 146.872Z" fill="white"/>
<g opacity="0.05">
<path opacity="0.05" d="M1172.48 65.4004C1180.89 65.4004 1187.72 60.2702 1187.72 53.9418C1187.72 47.6134 1180.89 42.4832 1172.48 42.4832C1164.06 42.4832 1157.23 47.6134 1157.23 53.9418C1157.23 60.2702 1164.06 65.4004 1172.48 65.4004Z" stroke="white" stroke-width="6"/>
</g>
<g opacity="0.05">
<path opacity="0.05" d="M27.6828 137.189C39.3264 137.189 48.7653 130.094 48.7653 121.342C48.7653 112.59 39.3264 105.494 27.6828 105.494C16.0393 105.494 6.60028 112.59 6.60028 121.342C6.60028 130.094 16.0393 137.189 27.6828 137.189Z" stroke="white" stroke-width="7"/>
</g>
<g opacity="0.05">
<path opacity="0.05" d="M660.342 123.709C668.761 123.709 675.586 118.579 675.586 112.251C675.586 105.922 668.761 100.792 660.342 100.792C651.923 100.792 645.099 105.922 645.099 112.251C645.099 118.579 651.923 123.709 660.342 123.709Z" stroke="white" stroke-width="6"/>
</g>
<g opacity="0.05">
<path opacity="0.05" d="M961.45 141.264C966.644 141.264 970.855 138.099 970.855 134.195C970.855 130.29 966.644 127.125 961.45 127.125C956.255 127.125 952.045 130.29 952.045 134.195C952.045 138.099 956.255 141.264 961.45 141.264Z" stroke="white" stroke-width="4"/>
</g>
<g opacity="0.05">
<path opacity="0.05" d="M649.499 33.4247C654.693 33.4247 658.904 30.2595 658.904 26.3549C658.904 22.4504 654.693 19.2852 649.499 19.2852C644.305 19.2852 640.094 22.4504 640.094 26.3549C640.094 30.2595 644.305 33.4247 649.499 33.4247Z" stroke="white" stroke-width="4"/>
</g>
<g opacity="0.05">
<path opacity="0.05" d="M231.202 38.4405C240.312 38.4405 247.697 32.8892 247.697 26.0414C247.697 19.1936 240.312 13.6423 231.202 13.6423C222.092 13.6423 214.707 19.1936 214.707 26.0414C214.707 32.8892 222.092 38.4405 231.202 38.4405Z" stroke="white" stroke-width="6"/>
</g>
<path opacity="0.05" d="M1027.64 91.7802L1036.62 117.14L1002.98 109.77L1027.64 91.7802Z" fill="white"/>
<path opacity="0.05" d="M910.865 150.716L919.848 176.075L886.208 168.706L910.865 150.716Z" fill="white"/>
<path opacity="0.05" d="M698.114 50.3335L703.525 76.2841L671.064 66.3012L698.114 50.3335Z" fill="white"/>
<path opacity="0.05" d="M227.838 81.5989L237.057 125.808L181.757 108.801L227.838 81.5989Z" fill="white"/>
</svg>
