<svg width="199" height="40" viewBox="0 0 199 40" fill="none" xmlns="http://www.w3.org/2000/svg">
<path d="M22.1649 33.9532H21.1649V34.9532V37.7569V38.7569H22.1649H31.3343H32.3343V37.7569V2.49416V1.49416H31.3343H22.1649H21.1649V2.49416V5.27805V6.27805H22.1649H26.9635V33.9532H22.1649Z" fill="#00AEFF" stroke="#00AEFF" stroke-width="2"/>
<path d="M11.6489 38.7569H12.6489V37.7569V34.9532V33.9532H11.6489H6.85028V6.27808H11.6489H12.6489V5.27808V2.49419V1.49419H11.6489H2.47946H1.47946V2.49419V37.7569V38.7569H2.47946H11.6489Z" fill="#00AEFF" stroke="#00AEFF" stroke-width="2"/>
<path d="M57.9199 30.4005H54.6644V21.6041H45.5218V30.4005H42.2798V10.8856H45.5218V18.8678H54.6644V10.8856H57.9199V30.4005Z" fill="#084482"/>
<path d="M79.664 30.4005H75.6896L65.9366 14.85H65.8281L65.8959 15.7176C66.0225 17.3728 66.0858 18.8856 66.0858 20.256V30.4005H63.1423V10.8856H67.076L76.8019 26.356H76.8833C76.8652 26.1513 76.829 25.4083 76.7748 24.1269C76.7205 22.8366 76.6934 21.831 76.6934 21.1102V10.8856H79.664V30.4005Z" fill="#084482"/>
<path d="M93.0117 19.8155H100.309V29.6129C99.1158 29.9956 97.9673 30.267 96.864 30.4272C95.7698 30.5873 94.5852 30.6674 93.3101 30.6674C90.3078 30.6674 87.9927 29.7953 86.365 28.0512C84.7372 26.2982 83.9233 23.8288 83.9233 20.6431C83.9233 17.5018 84.8412 15.0458 86.677 13.2749C88.5127 11.4952 91.0403 10.6053 94.2596 10.6053C96.3305 10.6053 98.2928 10.9969 100.147 11.78L99.0072 14.4362C97.3976 13.7065 95.7879 13.3417 94.1782 13.3417C92.0621 13.3417 90.3892 13.9957 89.1593 15.3038C87.9294 16.6119 87.3145 18.4006 87.3145 20.6697C87.3145 23.0546 87.8661 24.8699 88.9694 26.1157C90.0817 27.3527 91.6778 27.9711 93.7577 27.9711C94.8067 27.9711 95.9281 27.8421 97.1218 27.584V22.5518H93.0117V19.8155Z" fill="#084482"/>
<path d="M128.429 20.4562C128.429 23.6775 127.52 26.1424 125.702 27.851C123.885 29.5506 121.267 30.4005 117.849 30.4005H112.301V10.8856H118.432C121.588 10.8856 124.043 11.7221 125.797 13.3951C127.552 15.068 128.429 17.4217 128.429 20.4562ZM125.011 20.563C125.011 15.8912 122.791 13.5553 118.35 13.5553H115.543V27.7175H117.849C122.623 27.7175 125.011 25.3327 125.011 20.563Z" fill="#084482"/>
<path d="M138.914 30.6674C136.581 30.6674 134.755 30 133.434 28.6652C132.123 27.3215 131.467 25.475 131.467 23.1258C131.467 20.7142 132.078 18.8188 133.299 17.4395C134.52 16.0602 136.197 15.3706 138.331 15.3706C140.312 15.3706 141.876 15.9623 143.025 17.1459C144.173 18.3294 144.747 19.9579 144.747 22.0312V23.7264H134.75C134.795 25.1591 135.189 26.2626 135.93 27.0368C136.672 27.802 137.716 28.1847 139.064 28.1847C139.95 28.1847 140.773 28.1046 141.532 27.9444C142.301 27.7753 143.124 27.4995 144.001 27.1168V29.6663C143.224 30.0312 142.437 30.2892 141.641 30.4405C140.845 30.5918 139.936 30.6674 138.914 30.6674ZM138.331 17.7465C137.318 17.7465 136.504 18.0624 135.89 18.6942C135.284 19.326 134.922 20.2471 134.804 21.4573H141.614C141.596 20.2382 141.297 19.3171 140.719 18.6942C140.14 18.0624 139.344 17.7465 138.331 17.7465Z" fill="#084482"/>
<path d="M158.448 26.1958C158.448 27.6374 157.914 28.7453 156.847 29.5195C155.78 30.2848 154.252 30.6674 152.262 30.6674C150.264 30.6674 148.658 30.3693 147.447 29.7731V27.0635C149.21 27.8643 150.851 28.2648 152.371 28.2648C154.333 28.2648 155.314 27.6819 155.314 26.5162C155.314 26.1424 155.206 25.831 154.989 25.5818C154.772 25.3327 154.414 25.0746 153.917 24.8076C153.42 24.5407 152.728 24.2381 151.842 23.9C150.114 23.2415 148.943 22.583 148.328 21.9245C147.722 21.266 147.42 20.4117 147.42 19.3616C147.42 18.098 147.935 17.1192 148.966 16.4251C150.006 15.7221 151.417 15.3706 153.198 15.3706C154.961 15.3706 156.63 15.7221 158.203 16.4251L157.173 18.7877C155.554 18.1292 154.193 17.7999 153.09 17.7999C151.408 17.7999 150.567 18.2716 150.567 19.2148C150.567 19.6775 150.784 20.0691 151.218 20.3894C151.661 20.7098 152.619 21.1503 154.093 21.7109C155.332 22.1825 156.232 22.6141 156.793 23.0057C157.353 23.3972 157.769 23.851 158.041 24.3672C158.312 24.8744 158.448 25.4839 158.448 26.1958Z" fill="#084482"/>
<path d="M165.094 30.4005H161.907V15.6375H165.094V30.4005ZM161.717 11.7266C161.717 11.166 161.87 10.7344 162.178 10.4318C162.494 10.1293 162.942 9.97798 163.521 9.97798C164.081 9.97798 164.515 10.1293 164.823 10.4318C165.139 10.7344 165.298 11.166 165.298 11.7266C165.298 12.2605 165.139 12.6832 164.823 12.9946C164.515 13.2972 164.081 13.4485 163.521 13.4485C162.942 13.4485 162.494 13.2972 162.178 12.9946C161.87 12.6832 161.717 12.2605 161.717 11.7266Z" fill="#084482"/>
<path d="M182.335 15.6375V17.3594L179.771 17.8266C180.006 18.1381 180.201 18.5207 180.355 18.9745C180.508 19.4284 180.585 19.9089 180.585 20.4161C180.585 21.9378 180.052 23.1347 178.984 24.0068C177.917 24.8788 176.448 25.3149 174.576 25.3149C174.097 25.3149 173.663 25.2793 173.274 25.2081C172.586 25.6263 172.243 26.1157 172.243 26.6764C172.243 27.0145 172.401 27.2681 172.718 27.4372C173.043 27.6063 173.635 27.6908 174.495 27.6908H177.113C178.767 27.6908 180.024 28.0379 180.884 28.732C181.743 29.4261 182.172 30.4272 182.172 31.7353C182.172 33.4082 181.471 34.6985 180.07 35.6062C178.668 36.5139 176.642 36.9677 173.993 36.9677C171.949 36.9677 170.389 36.6117 169.313 35.8998C168.237 35.1879 167.699 34.1735 167.699 32.8565C167.699 31.9488 167.988 31.1835 168.567 30.5606C169.155 29.9466 169.973 29.5195 171.022 29.2792C170.597 29.1012 170.244 28.8165 169.964 28.425C169.693 28.0245 169.557 27.6063 169.557 27.1702C169.557 26.6185 169.715 26.1513 170.032 25.7687C170.348 25.3861 170.819 25.0079 171.443 24.6341C170.665 24.3049 170.032 23.7709 169.543 23.0323C169.064 22.2849 168.825 21.4128 168.825 20.4161C168.825 18.8144 169.335 17.573 170.357 16.692C171.388 15.8111 172.853 15.3706 174.752 15.3706C175.177 15.3706 175.62 15.4017 176.082 15.464C176.552 15.5174 176.905 15.5753 177.14 15.6375H182.335ZM170.547 32.6963C170.547 33.3726 170.855 33.8932 171.47 34.258C172.094 34.6229 172.966 34.8053 174.088 34.8053C175.824 34.8053 177.117 34.5606 177.967 34.0712C178.817 33.5817 179.242 32.9321 179.242 32.1224C179.242 31.4816 179.007 31.0234 178.537 30.7475C178.076 30.4805 177.212 30.3471 175.946 30.3471H173.531C172.618 30.3471 171.89 30.5562 171.348 30.9744C170.814 31.4016 170.547 31.9755 170.547 32.6963ZM171.917 20.4161C171.917 21.3416 172.157 22.0535 172.636 22.5518C173.125 23.0501 173.821 23.2993 174.725 23.2993C176.57 23.2993 177.492 22.3294 177.492 20.3894C177.492 19.4284 177.262 18.6898 176.801 18.1737C176.348 17.6486 175.657 17.3861 174.725 17.3861C173.803 17.3861 173.102 17.6442 172.623 18.1603C172.152 18.6764 171.917 19.4284 171.917 20.4161Z" fill="#084482"/>
<path d="M198.328 30.4005H195.126V21.3238C195.126 20.1848 194.891 19.3349 194.421 18.7743C193.96 18.2137 193.223 17.9334 192.21 17.9334C190.863 17.9334 189.877 18.3249 189.253 19.108C188.629 19.8911 188.317 21.2037 188.317 23.0457V30.4005H185.129V15.6375H187.625L188.073 17.573H188.236C188.688 16.87 189.33 16.3272 190.162 15.9445C190.994 15.5619 191.916 15.3706 192.929 15.3706C196.528 15.3706 198.328 17.1726 198.328 20.7765V30.4005Z" fill="#084482"/>
</svg>
