<svg width="34" height="35" viewBox="0 0 34 35" fill="none" xmlns="http://www.w3.org/2000/svg">
<path d="M34 0H0V28.4031H8.94462V31.3846C8.94462 32.9538 10.2 34.2092 11.7692 34.2092C13.3385 34.2092 14.5938 32.9538 14.5938 31.3846V28.4031H34V0ZM33.2154 0.784615V4.13231H0.784615V0.784615H33.2154ZM13.8092 31.3846C13.8092 32.5354 12.8677 33.4246 11.7692 33.4246C10.6185 33.4246 9.72923 32.4831 9.72923 31.3846V26.4154C9.72923 26.1015 9.99077 25.84 10.3046 25.84H10.9846V23.5908C11.2462 23.5908 11.5077 23.6431 11.7692 23.6431C12.0308 23.6431 12.2923 23.6431 12.5538 23.5908V25.84H13.2862C13.6 25.84 13.8615 26.1015 13.8615 26.4154V31.3846H13.8092ZM11.7692 22.8585C7.53231 22.8585 4.02769 19.4062 4.02769 15.1169C4.02769 10.88 7.48 7.37538 11.7692 7.37538C16.0062 7.37538 19.5108 10.8277 19.5108 15.1169C19.5108 19.4062 16.0585 22.8585 11.7692 22.8585ZM14.5938 27.6185V26.4154C14.5938 25.6831 14.0185 25.1077 13.2862 25.0554V23.4862C17.2615 22.7538 20.2431 19.3015 20.2431 15.1169C20.2431 10.4092 16.4246 6.59077 11.7169 6.59077C7.00923 6.59077 3.19077 10.4092 3.19077 15.1169C3.19077 19.3015 6.17231 22.7538 10.1477 23.4862V25.0554C9.41539 25.1077 8.84 25.6831 8.84 26.4154V27.6185H0.784615V4.91692H33.2677V27.6185H14.5938Z" fill="#00AEFF"/>
<path d="M29.4493 2.09229H28.6646V2.8769H29.4493V2.09229Z" fill="#00AEFF"/>
<path d="M27.4615 2.09229H26.6769V2.8769H27.4615V2.09229Z" fill="#00AEFF"/>
<path d="M31.3846 2.09229H30.6V2.8769H31.3846V2.09229Z" fill="#00AEFF"/>
<path d="M24.0615 2.09229H3.08609V2.8769H24.0615V2.09229Z" fill="#00AEFF"/>
<path d="M12.1877 31.0186H11.4031V31.8032H12.1877V31.0186Z" fill="#00AEFF"/>
<path d="M12.1877 29.3447H11.4031V30.1293H12.1877V29.3447Z" fill="#00AEFF"/>
<path d="M16.7385 16.4246L17.9939 16.1631V13.9662L16.7385 13.7569C16.6339 13.3385 16.4247 12.92 16.2154 12.5539L16.9478 11.5077L15.3785 9.93849L14.3324 10.6708C13.9662 10.4616 13.5478 10.3046 13.1293 10.1477L12.8678 8.89233H10.6708L10.4616 10.1477C10.0431 10.2523 9.62468 10.4093 9.25852 10.6708L8.16006 9.93849L6.59083 11.5077L7.32314 12.5539C7.11391 12.92 6.95699 13.3385 6.80006 13.7569L5.54468 14.0185V16.2154L6.80006 16.4246C6.90468 16.8431 7.11391 17.2616 7.32314 17.6277L6.59083 18.7262L8.16006 20.2431L9.20622 19.5108C9.57237 19.72 9.99083 19.8769 10.4093 20.0339L10.6708 21.2893H12.8678L13.077 20.0339C13.4954 19.9293 13.9139 19.72 14.2801 19.5108L15.3262 20.2431L16.8431 18.6739L16.1108 17.6277C16.4247 17.2616 16.6339 16.8431 16.7385 16.4246ZM16.0062 16.0062C15.9016 16.5293 15.6924 17 15.4308 17.4708L15.2739 17.68L15.9539 18.6216L15.3262 19.2493L14.3847 18.6216L14.1231 18.7785C13.7047 19.04 13.1816 19.2493 12.7108 19.4062L12.4493 19.4585L12.2401 20.6093H11.3508L11.1416 19.4585L10.8801 19.4062C10.357 19.3016 9.88622 19.0923 9.41545 18.8308L9.20622 18.6739L8.26468 19.3539L7.63699 18.7262L8.26468 17.7846L8.10775 17.5754C7.84622 17.1569 7.63699 16.6339 7.48006 16.1631V15.7969L6.32929 15.5877V14.6985L7.48006 14.4893L7.53237 14.2277C7.63698 13.7046 7.84622 13.2339 8.10775 12.7631L8.26468 12.5539L7.58468 11.6123L8.21237 10.9846L9.15391 11.6123L9.36314 11.4554C9.7816 11.1416 10.3047 10.9846 10.7754 10.8277L11.037 10.7754L11.2462 9.62464H12.1354L12.3447 10.7754L12.6062 10.8277C13.1293 10.9323 13.6001 11.1416 14.0708 11.4031L14.2801 11.56L15.2216 10.88L15.8493 11.5077L15.2216 12.4493L15.3785 12.6585C15.6924 13.0769 15.8493 13.6 16.0062 14.0708L16.0585 14.3323L17.2093 14.5416V15.4308L16.0585 15.64L16.0062 16.0062Z" fill="#00AEFF"/>
<path d="M11.7693 12.3447C11.037 12.3447 10.3047 12.6586 9.78159 13.1816C9.25852 13.7047 8.94467 14.437 8.94467 15.1693C8.94467 16.6863 10.2001 17.9416 11.7693 17.9416C12.5016 17.9416 13.2339 17.6278 13.757 17.1047C14.2801 16.5816 14.5939 15.8493 14.5416 15.117C14.5939 13.6001 13.3385 12.3447 11.7693 12.3447ZM13.2339 16.5293C12.8677 16.8955 12.3447 17.1047 11.8216 17.1047V17.4709V17.1047C10.7231 17.1047 9.78159 16.2155 9.78159 15.117C9.78159 14.594 9.99082 14.0709 10.357 13.7047C10.7231 13.3386 11.2462 13.1293 11.7693 13.1293C12.8677 13.1293 13.8093 14.0186 13.8093 15.117C13.8093 15.6401 13.6001 16.1632 13.2339 16.5293Z" fill="#00AEFF"/>
<path d="M22.3354 11.7169H31.4892V6.64307H22.3354V11.7169ZM23.12 7.42768H30.7046V10.9323H23.12V7.42768Z" fill="#00AEFF"/>
<path d="M31.3846 13.8091H22.7015V14.5937H31.3846V13.8091Z" fill="#00AEFF"/>
<path d="M31.3847 17.2092H21.76V17.9938H31.3847V17.2092Z" fill="#00AEFF"/>
<path d="M31.4369 20.6091H20.2954V21.3937H31.4369V20.6091Z" fill="#00AEFF"/>
<path d="M31.437 24.0615H16.7908V24.8461H31.437V24.0615Z" fill="#00AEFF"/>
</svg>
